# xmcd CD database file
#
# Track frame offsets:
#	150
#	13101
#	31134
#	42704
#	60204
#	68684
#	89147
#	98790
#	109127
#	129953
#	137563
#	154284
#	164035
#	190927
#	198424
#	220202
#
# Disc length: 3130 seconds
#
# Revision: 0
# Processed by: cddbd v1.4PL0 Copyright (c) Steve Scherf et al.
# Submitted via: CDex 1.51
#
DISCID=e40c3810
DTITLE=Pierre Favre Michel Godard - deux
DYEAR=2001
DGENRE=Jazz
TTITLE0=Deux-primo
TTITLE1=Pierre
TTITLE2=Deux-secundo
TTITLE3=Penthesilee
TTITLE4=Deux-terzo
TTITLE5=Angelica
TTITLE6=Deux-quarto
TTITLE7=Deux-quinto
TTITLE8=Lucia
TTITLE9=Deux-sesto
TTITLE10=De Memoire de tuba
TTITLE11=Deux-settimo
TTITLE12=Beatiful love
TTITLE13=Deux-ottavo
TTITLE14=Altre carezze
TTITLE15=Deux-nono
EXTD=YEAR: 2001
EXTT0=
EXTT1=
EXTT2=
EXTT3=
EXTT4=
EXTT5=
EXTT6=
EXTT7=
EXTT8=
EXTT9=
EXTT10=
EXTT11=
EXTT12=
EXTT13=
EXTT14=
EXTT15=
PLAYORDER=
